<svg xmlns="http://www.w3.org/2000/svg" xmlns:xlink="http://www.w3.org/1999/xlink" viewBox="0 0 46.34 44">
  <defs>
    <linearGradient id="a" x1="-565.34" y1="359.18" x2="-565.1" y2="357.72" gradientTransform="matrix(26.44, 0, 0, -7.56, 14976.44, 2753.67)" gradientUnits="userSpaceOnUse">
      <stop offset="0.01" stop-color="#00b580"/>
      <stop offset="1" stop-color="#69ecce"/>
    </linearGradient>
    <linearGradient id="b" x1="-563.78" y1="372.45" x2="-563.39" y2="371.53" gradientTransform="matrix(24.56, 0, 0, -10.47, 13854.92, 3901.1)" gradientUnits="userSpaceOnUse">
      <stop offset="0.01" stop-color="#00b580"/>
      <stop offset="1" stop-color="#abecce"/>
    </linearGradient>
    <linearGradient id="c" x1="-575.17" y1="398.25" x2="-574.48" y2="397.48" gradientTransform="matrix(46.34, 0, 0, -41.75, 26660.95, 16634.4)" xlink:href="#b"/>
  </defs>
  <g>
    <path d="M35.35,19.42h-.09c-.57,0-1.59-.1-2.15-.14H32.8a4.8,4.8,0,0,0-2.2.54,5.78,5.78,0,0,0-1.17.86l-1.9,1.63L25,24.52A28.89,28.89,0,0,0,23.09,20a3.39,3.39,0,0,0-.33-.42,1.66,1.66,0,0,0-.34-.25,24.66,24.66,0,0,1-2-1.69,8.36,8.36,0,0,1-2.6-4.53c0-.23-.08-.46-.11-.69h-.35c-.31,3.12.35,4.89,1.2,6a12.19,12.19,0,0,1,2.77,4.8,10,10,0,0,1,.34,1.95,2.6,2.6,0,0,1-1.51-.71l-2.4-2.15a5.19,5.19,0,0,0-3.57-1.54l-.41,0-2.15.16c-.41,0-.83.09-1.25.09a3.2,3.2,0,0,1-1.3-.24,3.67,3.67,0,0,1-1.27-.86H7.1a4.5,4.5,0,0,0,.38.64,4.38,4.38,0,0,0,3.27,1.8l.18,0,.71.06,1.43.11.72.06a3,3,0,0,1,1.54.52,4,4,0,0,1,.81.78l1,1.07,1.31,1.47a5.42,5.42,0,0,0,3.65,1.72l6.47.34,1.43.07h.18a1.92,1.92,0,0,1,1.34.66l.69.76c.11.12.57.6.65.72a1.71,1.71,0,0,1-.2,2.3l0,0h0l0,0-1.07,1a6.44,6.44,0,0,0-1.53,2.41h6c.17-.18.3-.34.38-.43a6.21,6.21,0,0,0-.61-8.55l-1.36-1.25a5.93,5.93,0,0,0-4-1.52h-.2l-1.88.09.82-.94,1.64-1.9a3.3,3.3,0,0,1,2.13-1.31c.55-.08,1.58-.13,2.14-.17a4.31,4.31,0,0,0,4-3.38h-.31a3.68,3.68,0,0,1-3.31,2.35Z" style="fill: none"/>
    <path d="M11,19.85H9.93a1.71,1.71,0,0,0,.45,0Q10.68,19.88,11,19.85Z" style="fill: none"/>
    <path d="M24.43,41c-6.33,0-6.5,2.1-8.46,3H40.34a1.1,1.1,0,0,0,1.14-.78l.93-5.78c.08-.53-.45-1-1.14-1h-.46a12.49,12.49,0,0,1-5.71,1.11C27.79,37.55,32.52,41,24.43,41Z" style="fill: url(#a)"/>
    <path d="M35.35,19.42h-.09c-.57,0-1.59-.1-2.15-.14H32.8a4.8,4.8,0,0,0-2.2.54,5.78,5.78,0,0,0-1.17.86l-1.9,1.63L25,24.52A28.89,28.89,0,0,0,23.09,20a3.39,3.39,0,0,0-.33-.42,1.66,1.66,0,0,0-.34-.25,24.66,24.66,0,0,1-2-1.69,8.36,8.36,0,0,1-2.6-4.53c0-.23-.08-.46-.11-.69h-.35c-.31,3.12.35,4.89,1.2,6a12.19,12.19,0,0,1,2.77,4.8,10,10,0,0,1,.34,1.95,2.6,2.6,0,0,1-1.51-.71l-2.4-2.15a5.19,5.19,0,0,0-3.57-1.54l-.41,0-2.15.16c-.41,0-.83.09-1.25.09a3.2,3.2,0,0,1-1.3-.24,3.67,3.67,0,0,1-1.27-.86H7.1a4.5,4.5,0,0,0,.38.64,4.38,4.38,0,0,0,3.27,1.8l.18,0,.71.06,1.43.11.72.06a3,3,0,0,1,1.54.52,4,4,0,0,1,.81.78l1,1.07,1.31,1.47a5.42,5.42,0,0,0,3.65,1.72l6.47.34,1.43.07h.18a1.92,1.92,0,0,1,1.34.66l.69.76c.11.12.57.6.65.72a1.71,1.71,0,0,1-.2,2.3l0,0h0l0,0-1.07,1a6.44,6.44,0,0,0-1.53,2.41h6c.17-.18.3-.34.38-.43a6.21,6.21,0,0,0-.61-8.55l-1.36-1.25a5.93,5.93,0,0,0-4-1.52h-.2l-1.88.09.82-.94,1.64-1.9a3.3,3.3,0,0,1,2.13-1.31c.55-.08,1.58-.13,2.14-.17a4.31,4.31,0,0,0,4-3.38h-.31a3.68,3.68,0,0,1-3.31,2.35Z" style="fill: none"/>
    <path d="M11,19.85H9.93a1.71,1.71,0,0,0,.45,0Q10.68,19.88,11,19.85Z" style="fill: none"/>
    <path d="M23.21,2.86a12.25,12.25,0,0,0,3.65-.61A5.33,5.33,0,0,0,22.51,0H12.11A5.34,5.34,0,0,0,6.78,5.34h0v0A4.64,4.64,0,0,0,2.3,10v.48a14.66,14.66,0,0,1,8.9-3.32c7,0,6-4.29,12-4.29Z" style="fill: url(#b)"/>
    <path d="M44.15,13.64v0A2.63,2.63,0,0,0,41.53,11h-5.1a2.64,2.64,0,0,0-2.62,2.62v0a2.28,2.28,0,0,0-2.2,2.27v.65a.51.51,0,0,0,.52.51h5.35a2.55,2.55,0,0,1-2.13,1.28h-.06c-.34,0-.9-.05-1.39-.09l-.73-.05H32.8a5.85,5.85,0,0,0-2.69.66,6.81,6.81,0,0,0-1.39,1l-1.89,1.63-1.37,1.2A24.82,24.82,0,0,0,24,19.44l0-.06a4,4,0,0,0-.47-.6h0a2.88,2.88,0,0,0-.52-.4,14.19,14.19,0,0,1-1.34-1.12l-.52-.46a7.3,7.3,0,0,1-2.25-3.95,4.2,4.2,0,0,1-.08-.47H31.27a1.05,1.05,0,0,0,1.06-1h0V10a4.65,4.65,0,0,0-4.48-4.62v0h0a5.34,5.34,0,0,0-1-3.09,12.25,12.25,0,0,1-3.65.61c-6,0-5,4.29-12,4.29a14.71,14.71,0,0,0-8.9,3.32v.85a1.05,1.05,0,0,0,1.06,1H16.3c-.28,2.88.2,5.06,1.44,6.62.07.1.16.21.27.34a10.6,10.6,0,0,1,2.15,3.61l-.39-.35-1.28-1.15a6.24,6.24,0,0,0-4.3-1.82l-.5,0-.3,0a.45.45,0,0,0,.1-.28v-.6a2.09,2.09,0,0,0-2-2.07v0a2.41,2.41,0,0,0-2.4-2.4H4.41A2.4,2.4,0,0,0,2,16.69H2v0a2.08,2.08,0,0,0-2,2.07v.6a.47.47,0,0,0,.47.48H5.94a5.61,5.61,0,0,0,.66,1.26,5.47,5.47,0,0,0,4.06,2.24l.17,0,.71.06h0l1.44.11.72.05h0a2,2,0,0,1,1,.34h0a4.11,4.11,0,0,1,.59.59v0l1,1.07.61.68.71.79A6.46,6.46,0,0,0,22,29.17l4.53.23,1.95.1,1.43.08h.17a.94.94,0,0,1,.6.3v0l.35.38.33.37a2.65,2.65,0,0,1,.2.22l.37.4,0,.06a.65.65,0,0,1,0,.82.23.23,0,0,0-.07.07l0,0h0l-1.07,1,0,0a7.61,7.61,0,0,0-1.92,3.17H11.9c-.69,0-1.22.47-1.14,1l.94,5.78a1.08,1.08,0,0,0,1.14.78H16c2-.91,2.13-3,8.46-3,8.09,0,3.35-3.43,10.66-3.43a12.46,12.46,0,0,0,5.71-1.11H37.29a7.25,7.25,0,0,0,1.45-4.92,7.14,7.14,0,0,0-2.37-4.86l-.58-.54-.78-.7a7,7,0,0,0-4.35-1.79l.84-1,.05-.06A2.25,2.25,0,0,1,33,21.68c.32,0,.85-.07,1.32-.11l.75-.05a5.47,5.47,0,0,0,3.85-1.94,5.27,5.27,0,0,0,1.15-2.5h5.77a.52.52,0,0,0,.52-.52v-.65a2.26,2.26,0,0,0-2.2-2.26ZM11,19.85q-.3,0-.6,0a3.4,3.4,0,0,1-.45,0Zm24,.6c-.56.05-1.59.1-2.14.17a3.32,3.32,0,0,0-2.13,1.32l-1.64,1.89-.82,1,1.88-.1h.2a6,6,0,0,1,4,1.53l1.36,1.24A6.22,6.22,0,0,1,36.27,36a3.75,3.75,0,0,1-.38.43h-6A6.4,6.4,0,0,1,31.46,34l1.07-1,0,0,0,0,0,0a1.71,1.71,0,0,0,.2-2.3c-.08-.12-.54-.6-.65-.72s-.54-.6-.69-.75a2,2,0,0,0-1.34-.67H30l-1.43-.07-6.47-.33a5.39,5.39,0,0,1-3.65-1.73l-1.31-1.46-1-1.07a4,4,0,0,0-.81-.79,3,3,0,0,0-1.54-.52l-.72-.06-1.43-.1-.71-.07h-.18a4.42,4.42,0,0,1-3.27-1.8,4.15,4.15,0,0,1-.38-.64H7.8a3.85,3.85,0,0,0,1.28.86,3,3,0,0,0,1.3.23c.41,0,.84-.05,1.25-.08s1.67-.13,2.15-.17l.4,0a5.15,5.15,0,0,1,3.57,1.54l2.4,2.15a2.59,2.59,0,0,0,1.52.71,10.91,10.91,0,0,0-.34-1.95,12.31,12.31,0,0,0-2.77-4.8c-.85-1.07-1.51-2.84-1.2-6h.35c0,.23.06.46.11.69a8.38,8.38,0,0,0,2.59,4.53,24.81,24.81,0,0,0,2,1.69,2.13,2.13,0,0,1,.34.25,3.5,3.5,0,0,1,.33.43A28.78,28.78,0,0,1,25,24.51l2.56-2.22,1.89-1.63a6.14,6.14,0,0,1,1.18-.86,4.79,4.79,0,0,1,2.19-.54h.31c.57,0,1.59.13,2.15.15h.1a3.67,3.67,0,0,0,3.31-2.35H39a4.3,4.3,0,0,1-4,3.38Z" style="fill: url(#c)"/>
  </g>
</svg>
