<svg xmlns="http://www.w3.org/2000/svg" xmlns:xlink="http://www.w3.org/1999/xlink" viewBox="0 0 188.24 44">
  <defs>
    <linearGradient id="a" x1="-565.34" y1="359.18" x2="-565.1" y2="357.72" gradientTransform="matrix(26.44, 0, 0, -7.56, 14976.51, 2753.67)" gradientUnits="userSpaceOnUse">
      <stop offset="0.01" stop-color="#00b580"/>
      <stop offset="1" stop-color="#69ecce"/>
    </linearGradient>
    <linearGradient id="b" x1="-563.78" y1="372.45" x2="-563.39" y2="371.53" gradientTransform="matrix(24.56, 0, 0, -10.47, 13854.99, 3901.1)" gradientUnits="userSpaceOnUse">
      <stop offset="0.01" stop-color="#00b580"/>
      <stop offset="1" stop-color="#abecce"/>
    </linearGradient>
    <linearGradient id="c" x1="-575.17" y1="398.25" x2="-574.48" y2="397.48" gradientTransform="matrix(46.34, 0, 0, -41.75, 26661.09, 16634.4)" xlink:href="#b"/>
  </defs>
  <g>
    <g>
      <path d="M57.65.63H71.52a6.16,6.16,0,0,1,6.36,6V7a6,6,0,0,1-3.81,5.55,6.63,6.63,0,0,1,4.48,6.24,6.37,6.37,0,0,1-6.16,6.57,3.23,3.23,0,0,1-.44,0H57.65ZM62.7,5.07v5.58H70a2.79,2.79,0,0,0,0-5.58Zm0,15.82h7.8a3,3,0,0,0,0-6H62.7ZM93.21.2c7.87,0,13,5.72,13,12.78s-5.08,12.78-13,12.78S80.25,20,80.25,13,85.34.2,93.21.2Zm0,21.12c4.55,0,7.91-3.57,7.91-8.34s-3.36-8.33-7.91-8.33S85.3,8.22,85.3,13,88.66,21.32,93.21,21.32Zm35-20.69h5V18.38a7.36,7.36,0,1,1-14.72,0V7a2.36,2.36,0,0,0-2.33-2.33A2.33,2.33,0,0,0,113.94,7V25.34h-5V7.58a7.36,7.36,0,0,1,14.72,0V19a2.32,2.32,0,1,0,4.63,0V.63Zm19.64,20.26A2.88,2.88,0,0,0,150.7,18a2.91,2.91,0,0,0-2.82-2.9h-4.13c-4.17,0-7.49-2.65-7.49-7.17A7,7,0,0,1,142.81.63h11.32V5.07H143.89a2.64,2.64,0,0,0-2.58,2.68,2.58,2.58,0,0,0,2.48,2.65h4.37c4.55,0,7.56,2.82,7.56,7.06,0,5-3.25,7.87-7.2,7.87H137.29V20.89ZM158.5,10.37C158.5,4.09,162.78.2,168.78.2s10.27,3.89,10.27,10.17v15H174V18.66H163.55v6.67h-5Zm5.05,3.85H174V10.05a5.23,5.23,0,0,0-10.45-.35v4.52ZM188.23.63h-5V25.34h5V.63Z" transform="translate(0)" style="fill: #fff"/>
      <g>
        <path d="M62.91,43.79a14.16,14.16,0,0,1-2.06-.13,6,6,0,0,1-1.71-.47,2.81,2.81,0,0,1-1.16-1,2.9,2.9,0,0,1-.41-1.6v-.09a.19.19,0,0,1,0-.08h1.85a.59.59,0,0,0,0,.14c0,.06,0,.13,0,.2a1,1,0,0,0,.43.82,2.81,2.81,0,0,0,1.2.48,9.39,9.39,0,0,0,1.84.15c.32,0,.63,0,.95,0s.59-.08.89-.14a3.89,3.89,0,0,0,.75-.25,1.62,1.62,0,0,0,.52-.38.82.82,0,0,0,.2-.54.86.86,0,0,0-.35-.7,2.89,2.89,0,0,0-.94-.44,10.26,10.26,0,0,0-1.34-.27L62,39.25a13,13,0,0,1-1.53-.33,6.33,6.33,0,0,1-1.33-.52,2.63,2.63,0,0,1-.95-.83,2.42,2.42,0,0,1,0-2.44,2.64,2.64,0,0,1,.93-.89,5.17,5.17,0,0,1,1.57-.56,11,11,0,0,1,2.22-.2,9.55,9.55,0,0,1,2.2.22,4.49,4.49,0,0,1,1.49.6,2.34,2.34,0,0,1,.85.89,2.28,2.28,0,0,1,.27,1.08v.25H65.88v-.23a.8.8,0,0,0-.35-.63,2.85,2.85,0,0,0-1-.46A5.85,5.85,0,0,0,63,35a9.29,9.29,0,0,0-1.83.15,2.65,2.65,0,0,0-1.05.41.75.75,0,0,0-.34.63.72.72,0,0,0,.34.61,2.63,2.63,0,0,0,.93.39c.4.09.85.18,1.35.25l1.53.24q.79.13,1.53.33a5.35,5.35,0,0,1,1.34.53,2.8,2.8,0,0,1,.94.84,2.18,2.18,0,0,1,.35,1.24,2.58,2.58,0,0,1-.66,1.84,3.82,3.82,0,0,1-1.83,1,10.37,10.37,0,0,1-2.72.3Z" transform="translate(0)" style="fill: #fff"/>
        <path d="M86.86,43.62V35.31H82.39V33.66h10.8v1.65H88.73v8.31Z" transform="translate(0)" style="fill: #fff"/>
        <path d="M108.13,43.62v-10h7.67a3.23,3.23,0,0,1,1.69.41,2.68,2.68,0,0,1,1,1.1,3.56,3.56,0,0,1,.33,1.54,3.17,3.17,0,0,1-.47,1.67A2.91,2.91,0,0,1,117,39.54l2.13,4.08H117l-1.9-3.73H110v3.73ZM110,38.33h5.32a1.48,1.48,0,0,0,1.59-1.58,1.63,1.63,0,0,0-.18-.81,1.18,1.18,0,0,0-.54-.52,1.86,1.86,0,0,0-.87-.18H110v3.09Z" transform="translate(0)" style="fill: #fff"/>
        <path d="M134.39,43.62v-10h1.87v10Z" transform="translate(0)" style="fill: #fff"/>
        <path d="M152.28,43.62v-10h1.87V39.2l6.44-5.54h2.46l-4.71,4.09,4.84,5.87h-2.4L157,38.88l-2.8,2.26v2.48Z" transform="translate(0)" style="fill: #fff"/>
        <path d="M178.19,43.62v-10h9.93v1.58h-8.06v2.51h7.22v1.58h-7.22V42h8.18v1.58Z" transform="translate(0)" style="fill: #fff"/>
      </g>
    </g>
    <path d="M35.35,19.42h-.1c-.56,0-1.58-.1-2.15-.14h-.31a4.79,4.79,0,0,0-2.19.54,5.85,5.85,0,0,0-1.18.86L27.53,22.3,25,24.52A29.86,29.86,0,0,0,23.09,20a3.39,3.39,0,0,0-.33-.42,2,2,0,0,0-.34-.25,24.81,24.81,0,0,1-2-1.69,8.41,8.41,0,0,1-2.59-4.53c0-.23-.08-.46-.11-.69h-.36c-.31,3.12.36,4.89,1.21,6a12.31,12.31,0,0,1,2.77,4.8,10.76,10.76,0,0,1,.34,1.95,2.66,2.66,0,0,1-1.52-.71l-2.4-2.15a5.15,5.15,0,0,0-3.57-1.54l-.41,0-2.14.16c-.41,0-.83.09-1.25.09a3.2,3.2,0,0,1-1.3-.24,3.7,3.7,0,0,1-1.28-.86H7.1a3.72,3.72,0,0,0,.38.64,4.36,4.36,0,0,0,3.26,1.8l.18,0,.72.06,1.43.11.72.06a3,3,0,0,1,1.53.52,4,4,0,0,1,.82.78l.95,1.07c.28.3,1.05,1.17,1.32,1.47a5.4,5.4,0,0,0,3.64,1.72l6.48.34,1.43.07h.18a1.92,1.92,0,0,1,1.34.66l.69.76c.11.12.56.6.64.72a1.7,1.7,0,0,1-.2,2.3l0,0h0l0,0-1.07,1a6.46,6.46,0,0,0-1.54,2.41h6l.38-.43a6.23,6.23,0,0,0-.61-8.55l-1.36-1.25a6,6,0,0,0-4-1.52h-.2l-1.88.09.82-.94,1.63-1.9a3.33,3.33,0,0,1,2.14-1.31c.55-.08,1.58-.13,2.14-.17a4.29,4.29,0,0,0,4-3.38h-.3a3.68,3.68,0,0,1-3.31,2.35Z" transform="translate(0)" style="fill: none"/>
    <path d="M11,19.85H9.93a1.71,1.71,0,0,0,.45,0Q10.68,19.88,11,19.85Z" transform="translate(0)" style="fill: none"/>
    <path d="M24.43,41c-6.33,0-6.51,2.1-8.46,3H40.33a1.09,1.09,0,0,0,1.14-.78l.94-5.78c.08-.53-.45-1-1.14-1H40.8a12.42,12.42,0,0,1-5.7,1.11C27.78,37.55,32.52,41,24.43,41Z" transform="translate(0)" style="fill: url(#a)"/>
    <path d="M35.35,19.42h-.1c-.56,0-1.58-.1-2.15-.14h-.31a4.79,4.79,0,0,0-2.19.54,5.85,5.85,0,0,0-1.18.86L27.53,22.3,25,24.52A29.86,29.86,0,0,0,23.09,20a3.39,3.39,0,0,0-.33-.42,2,2,0,0,0-.34-.25,24.81,24.81,0,0,1-2-1.69,8.41,8.41,0,0,1-2.59-4.53c0-.23-.08-.46-.11-.69h-.36c-.31,3.12.36,4.89,1.21,6a12.31,12.31,0,0,1,2.77,4.8,10.76,10.76,0,0,1,.34,1.95,2.66,2.66,0,0,1-1.52-.71l-2.4-2.15a5.15,5.15,0,0,0-3.57-1.54l-.41,0-2.14.16c-.41,0-.83.09-1.25.09a3.2,3.2,0,0,1-1.3-.24,3.7,3.7,0,0,1-1.28-.86H7.1a3.72,3.72,0,0,0,.38.64,4.36,4.36,0,0,0,3.26,1.8l.18,0,.72.06,1.43.11.72.06a3,3,0,0,1,1.53.52,4,4,0,0,1,.82.78l.95,1.07c.28.3,1.05,1.17,1.32,1.47a5.4,5.4,0,0,0,3.64,1.72l6.48.34,1.43.07h.18a1.92,1.92,0,0,1,1.34.66l.69.76c.11.12.56.6.64.72a1.7,1.7,0,0,1-.2,2.3l0,0h0l0,0-1.07,1a6.46,6.46,0,0,0-1.54,2.41h6l.38-.43a6.23,6.23,0,0,0-.61-8.55l-1.36-1.25a6,6,0,0,0-4-1.52h-.2l-1.88.09.82-.94,1.63-1.9a3.33,3.33,0,0,1,2.14-1.31c.55-.08,1.58-.13,2.14-.17a4.29,4.29,0,0,0,4-3.38h-.3a3.68,3.68,0,0,1-3.31,2.35Z" transform="translate(0)" style="fill: none"/>
    <path d="M11,19.85H9.93a1.71,1.71,0,0,0,.45,0Q10.68,19.88,11,19.85Z" transform="translate(0)" style="fill: none"/>
    <path d="M23.21,2.86a12.25,12.25,0,0,0,3.65-.61A5.33,5.33,0,0,0,22.51,0H12.11A5.36,5.36,0,0,0,6.77,5.34h0v0A4.63,4.63,0,0,0,2.3,10v.48a14.66,14.66,0,0,1,8.89-3.32c7,0,6-4.29,12-4.29Z" transform="translate(0)" style="fill: url(#b)"/>
    <path d="M44.15,13.64v0A2.64,2.64,0,0,0,41.53,11h-5.1a2.63,2.63,0,0,0-2.62,2.62v0a2.27,2.27,0,0,0-2.2,2.27v.65a.51.51,0,0,0,.51.51h5.35a2.54,2.54,0,0,1-2.12,1.28h-.07c-.34,0-.9-.05-1.39-.09l-.72-.05h-.38a5.84,5.84,0,0,0-2.68.66,6.81,6.81,0,0,0-1.39,1l-1.89,1.63-1.38,1.2A22.41,22.41,0,0,0,24,19.44l0-.06a3.51,3.51,0,0,0-.48-.6h0a2.81,2.81,0,0,0-.51-.4,13,13,0,0,1-1.34-1.12l-.52-.46a7.26,7.26,0,0,1-2.26-3.95c0-.16-.05-.32-.08-.47H31.27a1,1,0,0,0,1.05-1h0V10a4.63,4.63,0,0,0-4.47-4.62v0h0a5.34,5.34,0,0,0-1-3.09,12.25,12.25,0,0,1-3.65.61c-6,0-5,4.29-12,4.29A14.66,14.66,0,0,0,2.3,10.47v.85a1,1,0,0,0,1.05,1H16.29c-.27,2.88.2,5.06,1.44,6.62l.28.34a10.6,10.6,0,0,1,2.15,3.61l-.39-.35-1.28-1.15a6.24,6.24,0,0,0-4.3-1.82l-.5,0-.3,0a.53.53,0,0,0,.1-.28v-.6a2.1,2.1,0,0,0-2-2.07v0a2.41,2.41,0,0,0-2.4-2.4H4.41A2.4,2.4,0,0,0,2,16.69H2v0a2.08,2.08,0,0,0-2,2.07v.6a.47.47,0,0,0,.47.48H5.94a5.23,5.23,0,0,0,.66,1.26,5.47,5.47,0,0,0,4.06,2.24l.16,0,.72.06h0l1.43.11.73.05h0a2,2,0,0,1,1,.34h0a4,4,0,0,1,.58.59l0,0,.95,1.07c.14.14.37.41.61.68l.72.79A6.46,6.46,0,0,0,22,29.17l4.52.23,2,.1,1.43.08h.16a.91.91,0,0,1,.6.3l0,0,.34.38.34.37a2.65,2.65,0,0,1,.2.22l.37.4,0,.06a.64.64,0,0,1-.06.82l-.06.07,0,0h0l-1.08,1v0a7.41,7.41,0,0,0-1.92,3.17H11.9c-.69,0-1.23.47-1.14,1l.93,5.78a1.09,1.09,0,0,0,1.14.78H16c2-.91,2.12-3,8.46-3,8.09,0,3.35-3.43,10.66-3.43a12.49,12.49,0,0,0,5.71-1.11H37.29a7.31,7.31,0,0,0-.92-9.78l-.58-.54-.78-.7a7.05,7.05,0,0,0-4.36-1.79l.85-1,0-.06A2.3,2.3,0,0,1,33,21.68c.32,0,.85-.07,1.31-.11l.76-.05a5.43,5.43,0,0,0,3.84-1.94A5.18,5.18,0,0,0,40,17.08h5.78a.52.52,0,0,0,.52-.52v-.65a2.27,2.27,0,0,0-2.2-2.26ZM11,19.85l-.6,0a3.4,3.4,0,0,1-.45,0Zm24,.6c-.56.05-1.59.1-2.14.17a3.34,3.34,0,0,0-2.14,1.32l-1.64,1.89-.81,1,1.88-.1h.2a6,6,0,0,1,4,1.53l1.36,1.24A6.23,6.23,0,0,1,36.27,36c-.08.1-.22.26-.38.43h-6A6.42,6.42,0,0,1,31.46,34l1.07-1,0,0,0,0,0,0a1.7,1.7,0,0,0,.2-2.3c-.08-.12-.53-.6-.64-.72l-.69-.75a2,2,0,0,0-1.34-.67H30l-1.43-.07L22,28.1a5.37,5.37,0,0,1-3.64-1.73l-1.32-1.46-.95-1.07a4.09,4.09,0,0,0-.82-.79,3,3,0,0,0-1.53-.52l-.72-.06-1.43-.1-.72-.07h-.18a4.4,4.4,0,0,1-3.26-1.8,4.15,4.15,0,0,1-.38-.64H7.8a3.91,3.91,0,0,0,1.27.86,3.08,3.08,0,0,0,1.3.23c.42,0,.84-.05,1.26-.08s1.67-.13,2.14-.17l.41,0a5.15,5.15,0,0,1,3.57,1.54l2.4,2.15a2.57,2.57,0,0,0,1.51.71,10.89,10.89,0,0,0-.33-1.95,12.31,12.31,0,0,0-2.77-4.8c-.85-1.07-1.52-2.84-1.21-6h.35q0,.35.12.69a8.38,8.38,0,0,0,2.59,4.53c.64.6,1.3,1.16,2,1.69a2.22,2.22,0,0,1,.35.25,3.5,3.5,0,0,1,.33.43A28.74,28.74,0,0,1,25,24.51l2.57-2.22,1.89-1.63a5.85,5.85,0,0,1,1.18-.86,4.79,4.79,0,0,1,2.19-.54h.31c.57,0,1.59.13,2.15.15h.1a3.67,3.67,0,0,0,3.31-2.35H39a4.31,4.31,0,0,1-4,3.38Z" transform="translate(0)" style="fill: url(#c)"/>
  </g>
</svg>
